<svg width="89" height="33" viewBox="0 0 89 33" fill="none" xmlns="http://www.w3.org/2000/svg">
<g clip-path="url(#clip0_623_6964)">
<path fill-rule="evenodd" clip-rule="evenodd" d="M23.6674 6.20044C23.1878 5.87399 22.1932 4.38696 20.0977 4.38696C18.8192 4.38696 18.3458 4.43227 17.2377 4.99145C16.2816 5.4734 15.5537 6.18705 15.0052 7.11078C13.2594 10.0509 13.7845 15.2153 17.1991 16.9835C19.0534 17.9443 21.4734 17.8856 22.9921 16.3347L23.6684 15.618V17.3728H27.2391V0H23.6684V6.20044H23.6674ZM20.9037 14.5058C19.758 14.5058 19.2055 14.2689 18.4411 13.4389C17.19 12.0816 17.3188 8.87792 19.2907 7.83679C20.2031 7.35484 21.1774 7.35793 22.0949 7.85636C22.4477 8.0479 22.6799 8.29402 22.9344 8.5834C23.936 9.71927 23.9593 12.1836 22.9617 13.3782C22.4731 13.9631 21.7036 14.5058 20.9047 14.5058H20.9037Z" fill="black"/>
<path fill-rule="evenodd" clip-rule="evenodd" d="M76.1849 6.37527V4.62048H72.6152V21.1735H76.1849V15.7928C76.5033 16.0091 76.8601 16.5785 77.6428 17.0018C79.5103 18.0131 81.9232 17.735 83.5078 16.4457C84.9606 15.2625 85.8011 13.3172 85.8011 11.4058V10.5872C85.8011 7.31856 83.3395 4.38672 80.3883 4.38672C78.5593 4.38672 77.7118 4.73788 76.5144 6.00866C76.3867 6.14356 76.3289 6.27641 76.1839 6.37527M78.9486 7.48642C80.0943 7.48642 80.6468 7.72328 81.4112 8.5533C82.2091 9.41833 82.4311 11.0681 82.0084 12.3502C81.8644 12.7868 81.6971 13.0865 81.4376 13.4088C80.5241 14.5437 79.048 14.8361 77.7564 14.1359C75.898 13.1277 75.7125 10.0249 76.8895 8.61406C77.1197 8.3391 77.3965 8.05693 77.7178 7.87672C78.02 7.70783 78.5107 7.48642 78.9466 7.48642H78.9486Z" fill="black"/>
<path fill-rule="evenodd" clip-rule="evenodd" d="M1.09392 5.55656C1.09392 5.64615 1.88572 8.15269 1.9577 8.30613C3.21384 7.6934 7.14446 6.84793 7.91294 8.92504C8.06197 9.32666 8.06197 9.53571 8.06197 10.0609C7.84197 10.0424 7.73045 9.97132 7.51957 9.90953C7.29552 9.84466 7.13736 9.80758 6.91634 9.76227C5.17965 9.41008 2.77789 9.51409 1.41328 10.5604C0.1906 11.4995 0 12.4995 0 14.038C0 16.0822 1.98102 17.6063 3.9732 17.6063C5.08435 17.6063 5.61357 17.5929 6.62233 17.1377C6.86869 17.0265 7.15966 16.8257 7.37155 16.6702L8.06197 16.0853V17.3715H11.5171V9.47496C11.5171 6.39997 9.37184 4.50307 6.33441 4.50307C5.03975 4.50307 4.34122 4.4866 3.06278 4.80686C2.786 4.87586 1.09392 5.37943 1.09392 5.55656ZM5.47062 15.0905C2.99282 15.0905 3.06683 12.8311 4.20536 12.1679C5.19486 11.5912 6.55441 11.7107 7.60879 12.0412C7.80344 12.102 7.94132 12.1823 8.11976 12.2245C8.11976 13.38 8.11266 13.7507 7.50234 14.347C7.06436 14.7733 6.31109 15.0905 5.47062 15.0905Z" fill="black"/>
<path fill-rule="evenodd" clip-rule="evenodd" d="M42.8992 9.29181C42.4521 9.75214 42.4836 10.1764 40.8837 10.3494C39.5242 10.4967 39.1825 10.2588 38.1778 9.99208C38.0724 11.3741 36.0822 12.1495 34.966 11.1001C34.7014 10.852 34.3628 10.4091 34.3202 9.96633C33.8822 10.0909 33.6673 10.2258 33.1219 10.3196C32.6454 10.4009 32.109 10.405 31.6123 10.3546C30.8276 10.2763 30.1219 10.1177 29.7012 9.48954L29.541 9.27637C29.541 10.749 29.8168 11.923 30.2395 12.9764C30.8002 14.3729 31.9549 15.6354 32.9526 16.7723L34.9407 19.1408C35.2823 19.5136 35.5429 20.0656 36.2221 20.0656C36.8538 20.0656 37.1883 19.5445 37.4803 19.1759C37.5695 19.0636 37.6385 19.0131 37.7277 18.9009L39.4715 16.8114C40.2359 15.8135 41.4312 14.6942 42.0142 13.3698C42.0912 13.1958 42.1166 13.1289 42.1916 12.9651C42.6772 11.9178 42.9013 10.4998 42.9013 9.29181" fill="#FDE300"/>
<path fill-rule="evenodd" clip-rule="evenodd" d="M46.5853 4.62053H45.0879V7.72023H46.5853V14.2131C46.5853 14.6302 46.709 15.2965 46.8226 15.6106C47.2707 16.8546 48.3565 17.6063 49.8103 17.6063C50.7319 17.6063 51.0918 17.6516 51.9992 17.3726C52.3946 17.251 52.7727 16.9802 53.0931 16.904V13.9794C52.6419 14.0175 50.156 15.4056 50.156 12.9846V7.72023H53.1509V4.62053H50.156V1.34473H46.5853V4.62053Z" fill="black"/>
<path fill-rule="evenodd" clip-rule="evenodd" d="M29.5403 9.27714L29.7005 9.49031C30.1212 10.1185 30.8269 10.276 31.6116 10.3553C32.1094 10.4048 32.6457 10.4017 33.1212 10.3203C33.6666 10.2266 33.8815 10.0927 34.3195 9.96711C34.4361 9.85795 34.4848 9.84868 34.5821 9.74261C35.089 9.18652 35.5736 7.72317 35.7987 7.37098C35.8909 6.99922 36.0248 6.88285 36.4607 6.96935L36.6533 7.37098C36.7639 7.61813 36.8602 7.85498 36.9666 8.0733C37.0832 8.31222 37.1674 8.54083 37.2931 8.79416C37.5526 9.31936 37.7432 9.66435 38.1761 9.99285C39.1808 10.2606 39.5225 10.4975 40.882 10.3502C42.4819 10.1772 42.4504 9.75291 42.8975 9.29259C42.9371 9.13297 43.2219 8.53053 43.371 7.90956C43.5575 7.13 43.372 7.03114 43.9914 6.60995V5.08894C43.5717 4.88504 42.0337 4.57713 41.4579 4.59463C37.5617 4.48135 37.8669 5.28975 36.2174 5.28769C35.233 5.28769 34.6916 4.91284 33.7538 4.7213C32.8201 4.53078 31.9603 4.55962 30.9769 4.59566C30.8603 4.61317 30.5126 4.62347 30.3169 4.6523C29.7978 4.73057 28.8337 4.89739 28.4434 5.08791V6.60892C29.1074 7.06101 28.78 6.77575 29.0689 7.84572C29.1328 8.08051 29.1875 8.34414 29.2727 8.57379C29.369 8.83124 29.4643 9.01866 29.5373 9.27611M32.6295 5.66666C32.4764 5.88703 31.8498 6.01885 31.8934 5.62031C31.9269 5.32064 32.5372 5.31755 32.6295 5.66666ZM38.2593 8.21233C37.725 8.43167 37.5222 6.72632 37.5202 6.49153C37.5131 5.66975 38.3059 5.51425 39.0429 5.47305C39.71 5.43598 39.7993 5.78817 39.3562 5.93234C39.0014 6.04768 38.6699 5.93337 38.4073 6.19906C37.7929 6.82106 38.4316 7.78805 38.2593 8.21233ZM39.9098 5.8376C39.8591 5.69755 39.8601 5.58324 39.9158 5.45246C40.1987 5.37934 40.4035 5.42671 40.584 5.55441C40.5434 5.87982 40.2139 5.90042 39.9098 5.8376ZM29.8283 7.07748C29.8283 6.74383 29.7684 6.29483 29.8658 6.0034C29.954 5.73668 30.1608 5.52248 30.468 5.49777C30.7133 5.2949 31.3703 5.39891 31.6481 5.47614L31.6319 5.87159C31.0955 6.05798 30.5805 5.91896 30.3605 6.50285C30.177 6.98789 30.4578 7.94561 30.175 8.25146C29.7958 8.17113 29.8283 7.43483 29.8293 7.07851L29.8283 7.07748Z" fill="black"/>
<path fill-rule="evenodd" clip-rule="evenodd" d="M59.3119 7.07764V4.62054H55.7422V17.3715H59.3119V12.9259C59.3119 9.9961 60.3196 8.18777 63.3429 8.18777V4.38574C62.2439 4.38574 61.4227 4.47328 60.565 5.24872C60.2862 5.50102 60.0875 5.75126 59.8756 6.06947C59.6434 6.41857 59.4498 6.91494 59.3119 7.07661" fill="black"/>
<path fill-rule="evenodd" clip-rule="evenodd" d="M39.5616 26.0281C39.5393 27.0291 39.002 27.3432 39.446 28.0167C40.5298 28.0167 40.765 27.441 41.2314 27.3154C41.2314 28.2381 42.4419 28.2968 43.3777 27.3895C43.5987 27.1753 43.9119 26.8066 43.993 26.4936C44.0123 26.4205 44.0164 26.3381 44.0174 26.334C44.064 26.1682 44.0478 26.1991 44.574 26.0899C44.7798 26.0467 45.164 25.9746 45.3769 25.9694C45.3607 26.1641 45.3201 26.2361 45.2624 26.3793C45.1954 26.5451 45.1792 26.6141 45.1214 26.8211C45.0312 27.1455 44.9795 27.3782 44.9095 27.718C44.866 27.9322 44.6987 28.5841 45.1265 28.4801C45.4013 28.4131 45.4043 27.9683 45.5148 27.6892C45.5837 27.5141 45.605 27.4997 45.6638 27.3143L46.7578 24.4484C47.0487 24.3063 47.7635 24.3032 48.1396 24.2146L47.6591 25.1888C47.6114 25.2795 47.5779 25.3309 47.5364 25.4154C47.4725 25.5462 47.4705 25.5709 47.4026 25.6893L46.9301 26.6717C46.6858 27.2278 46.262 27.8787 46.5854 28.3689C46.7537 28.3287 46.6371 28.3792 46.7851 28.2782C46.7993 28.269 46.8358 28.236 46.849 28.2257L47.1319 28.0455C47.2454 27.9744 47.2332 27.9672 47.3225 27.8879C47.6084 27.6305 49.2274 26.508 49.5225 26.438C49.5052 26.5111 48.5208 28.271 50.1145 27.8581C50.6367 27.7232 51.1912 27.1558 51.9993 26.9642C51.906 27.371 51.7691 27.2834 51.7691 27.9003C52.423 28.2515 52.7657 27.9641 53.2696 27.6696C53.5616 27.4987 54.3331 27.0394 54.6484 26.9642C54.4943 27.2598 54.4406 27.6078 54.3027 27.9003L54.4882 28.063C55.0083 28.0754 54.9769 27.9343 55.2668 27.6501C55.4098 27.51 55.4747 27.4915 55.6136 27.3586L56.6385 26.5286C56.82 26.3885 57.2103 26.0827 57.4121 26.0281C57.406 26.2938 57.2843 26.7922 57.2164 27.0579C57.0856 27.5656 57.0441 27.6336 57.2975 28.0167C57.7629 28.0167 57.8744 27.9899 58.2008 27.8231C58.5385 27.6501 58.7666 27.4492 58.9673 27.4317C58.9714 27.6223 58.9764 27.6459 59.0849 27.7211C59.1893 27.7932 59.2512 27.7829 59.4235 27.787C60.1809 27.8045 60.3816 27.6295 60.9808 27.1949C61.1308 27.0857 61.0822 27.0723 61.2707 27.0209C61.2383 27.1619 61.1085 27.4431 61.0507 27.5584C60.9047 27.8488 60.9666 27.6449 60.6026 27.9219C59.4316 28.8158 57.1424 30.6478 56.8575 32.1905C56.5635 33.7846 58.8497 32.8567 60.2234 30.8116C60.4515 30.4707 60.5884 30.1679 60.7993 29.8168C61.0426 29.411 61.1957 28.9692 61.3386 28.7272C62.0524 27.5193 61.3376 28.0095 62.8726 27.0682C63.2112 26.8602 63.5011 26.6862 63.8458 26.4771C64.0811 26.334 64.1003 26.2279 64.3061 26.126C64.6012 25.9807 64.5951 26.0796 64.7836 25.7923C64.4176 25.8005 63.7353 26.1476 63.4403 26.299L62.1355 26.9035C62.2126 26.5657 62.3657 26.3237 62.3657 25.9097C61.6823 25.4453 62.0767 25.9334 60.3268 26.9972C60.1809 27.0857 60.0987 27.1207 59.9598 27.2093C59.8057 27.3071 59.7591 27.3545 59.5452 27.373C59.6679 27.1372 59.7571 26.9148 59.9335 26.715C60.3492 26.2444 60.853 25.7758 61.3792 25.4339C61.5292 25.3371 61.5992 25.3217 61.6185 25.092C61.2028 25.092 60.8297 25.3196 60.4901 25.5245C60.3076 25.6347 60.2224 25.7254 60.0795 25.8675C59.9173 26.0281 59.8138 26.0745 59.6466 26.2464L59.0139 26.9488C58.6114 27.2093 58.1684 27.3494 57.7619 27.5481C57.775 26.9467 58.1076 26.0858 58.1076 25.6183C57.628 25.3608 57.4496 25.3876 56.7014 25.886C56.2604 26.1795 55.9289 26.507 55.5162 26.7881L55.9309 25.8016C56.0191 25.576 55.9694 25.6646 55.9187 25.4432C55.2506 25.2856 55.4047 25.4731 55.1796 25.921C54.9069 26.4627 54.9353 26.5389 54.5886 26.6656C54.2479 26.7902 53.9174 26.8849 53.6062 27.0136C53.2787 27.1485 53.005 27.2865 52.6359 27.3741C52.6582 27.1012 52.8813 26.8118 53.0141 26.5883C53.2027 26.267 53.447 26.0765 53.3274 25.7954C53.2797 25.6141 53.1895 25.5616 52.9979 25.5843C52.7921 25.609 52.7343 25.7243 52.6451 25.8623C52.4666 26.1383 52.3277 26.3813 52.1757 26.6728C51.0665 26.6728 50.9834 27.1702 49.8722 27.4338C49.9047 27.0384 50.1531 26.6542 50.3386 26.3247C50.3944 26.2248 50.4055 26.2392 50.441 26.1342C50.5049 25.9478 50.4623 25.9221 50.3579 25.8283C50.0233 25.5256 49.2923 25.8922 48.973 26.1105C48.7398 26.2701 48.5806 26.3834 48.3657 26.5471C48.1406 26.7181 47.9713 26.8664 47.7412 27.0229C47.803 26.7541 47.9835 26.2928 48.1051 26.0477C48.2663 25.7233 48.4083 25.4792 48.5583 25.1631L49.4576 23.3856C49.5853 23.1725 49.9544 22.6524 49.5681 22.5268C49.1778 22.4001 48.9304 22.8615 48.8138 23.0829C48.7286 23.2446 48.6749 23.328 48.5796 23.4886C48.3018 23.9603 48.4042 23.8079 48.2521 23.8583C48.1345 23.8975 47.1542 23.9809 46.9909 23.9809C47.0487 23.7615 48.1092 22.05 48.1426 21.6412C47.432 21.2591 47.2657 21.6916 47.0893 22.0922C46.8145 22.7173 46.4485 23.3022 46.2194 23.8995C46.0197 24.4196 45.898 24.1652 44.9389 24.4124C44.6277 24.4927 44.5719 24.607 44.5719 24.9757C44.8507 24.9757 44.7392 24.9757 44.9116 24.9108L45.896 24.6245C45.821 24.954 45.6365 25.2156 45.6081 25.5606C45.2735 25.5606 44.9166 25.5379 44.5953 25.5853C43.2884 25.7768 43.8308 25.5832 43.3391 25.4669C42.4571 25.2589 42.5159 25.3299 42.2239 25.6337C42.0546 25.8098 41.8589 25.9756 41.715 26.1692C41.423 26.5626 41.4453 26.7201 41.348 26.8499C41.2395 26.9941 41.1381 26.9508 40.6738 27.2186C40.4152 27.3669 40.1587 27.4276 39.9063 27.5502C39.9195 26.9488 40.252 26.0878 40.252 25.6203C39.7725 25.3629 39.594 25.3896 38.8458 25.8881C38.4048 26.1816 38.0723 26.509 37.6607 26.7902L38.0753 25.8036C38.1635 25.5781 38.1139 25.6667 38.0632 25.4453C37.465 25.3042 37.6282 25.2743 37.0656 26.4205C36.6428 27.2834 36.6134 27.5605 36.4512 27.9024L36.6367 28.0651C37.1568 28.0774 37.1254 27.9363 37.4153 27.6521C37.5573 27.5121 37.6232 27.4935 37.7621 27.3607C37.907 27.2227 37.9243 27.1877 38.0956 27.0569C38.3977 26.8262 39.3396 26.0899 39.5606 26.0302M41.9218 27.6078C41.9218 26.7057 42.8829 25.7944 42.9012 25.7944C43.0999 25.7944 43.1242 25.8376 43.3047 25.8531C43.3047 26.3175 43.1688 26.5801 42.8687 26.99C42.7623 27.1362 42.6183 27.233 42.4652 27.3401C42.2391 27.4976 42.1469 27.4987 41.9228 27.6078H41.9218ZM57.3553 32.4047C57.3553 31.518 57.8957 31.0865 58.3499 30.6076C58.5232 30.4243 58.5861 30.2946 58.7787 30.1082C58.9531 29.9393 59.0616 29.8837 59.241 29.6994C59.4124 29.5222 59.5472 29.4347 59.7307 29.2617C59.9497 29.0547 60.5286 28.5398 60.7527 28.4863C60.7253 28.8209 58.9044 32.3707 57.3553 32.4057V32.4047Z" fill="black"/>
<path d="M69.2162 4.62109H65.6465V17.3721H69.2162V4.62109Z" fill="black"/>
<path fill-rule="evenodd" clip-rule="evenodd" d="M30.9805 4.59566C31.9629 4.55962 32.8226 4.53078 33.7573 4.7213C34.6941 4.91181 35.2365 5.28666 36.221 5.28769C37.8694 5.28975 37.5653 4.48032 41.4614 4.59463C41.2729 4.2064 40.8572 3.74402 40.5551 3.43611C38.0367 0.878078 34.3525 0.919271 31.9172 3.40624L31.4276 3.9613C31.2816 4.12607 31.0737 4.40412 30.9815 4.59463" fill="#FDE300"/>
<path fill-rule="evenodd" clip-rule="evenodd" d="M78.3149 26.6718C78.0949 27.0055 77.7968 27.1857 77.7968 27.7243C78.2896 27.9889 78.615 27.9158 79.0834 27.6862C79.8823 27.2959 79.7292 27.2217 80.1003 27.022C80.1003 27.3443 80.0688 27.5379 80.2706 27.6676C80.9123 28.0816 81.549 27.3041 82.0002 27.197C81.9758 27.4998 81.7852 27.5657 81.9424 27.8993C82.4452 28.1444 82.5953 27.7027 82.7129 27.336C83.016 26.3845 84.0593 26.0539 84.917 25.7728C85.1694 25.6904 85.2748 25.6894 85.3397 25.4422C85.0741 25.3794 84.6088 25.4484 84.2691 25.5246C83.8535 25.6183 83.6385 25.7409 83.3242 25.9098C83.4104 25.5359 83.5341 25.5854 83.4733 25.4062C83.4226 25.2579 83.2381 25.2455 83.1022 25.2631C83.0687 25.2672 82.9278 25.2538 82.7889 25.4237L82.5426 25.9921C82.1958 26.885 82.1746 26.7491 81.1577 27.2176C80.9549 27.3113 81.0097 27.3124 80.7329 27.3124C80.7927 26.5843 81.2408 26.4432 81.251 25.9664C81.0958 25.8912 80.9732 25.85 80.7329 25.85L80.2919 26.3371C79.8357 26.6152 78.8685 27.3257 78.4305 27.4298C78.6322 27.1229 78.5805 27.1558 78.837 26.9076L79.5315 26.3268C80.0121 25.9582 80.6011 25.7471 80.964 25.4999C80.8961 25.3691 80.8677 25.3238 80.7907 25.2074C80.3395 25.2074 80.4227 25.1529 80.1216 25.3465L79.0651 25.9705C78.7955 26.0478 78.6708 26.0714 78.4122 26.1847C78.0168 26.3598 77.664 26.574 77.2707 26.7213C76.8013 26.8973 76.3613 26.9035 75.7225 26.9035C76.1473 26.5287 76.1189 26.7295 76.7262 25.9345C76.8905 25.7203 77.003 25.5916 77.1754 25.3969L77.6306 24.8058C78.1973 24.0963 78.395 23.8049 78.8664 23.0191C79.0074 22.7843 79.1848 22.5516 79.0236 22.3281C78.7934 22.0099 78.103 21.9018 77.5819 22.3569C77.148 22.7369 76.4991 23.4825 76.1636 23.9583L76.0896 24.0582C76.0825 24.0674 76.0703 24.0798 76.0622 24.0891C75.9709 24.1982 76.0297 24.1086 75.9344 24.2518C75.386 25.0756 75.3991 25.1508 74.9835 25.8593C74.8801 26.0354 74.9186 25.9839 74.8415 26.1837L73.7993 28.6933C73.5408 29.444 72.6162 32.5757 74.3934 32.0474C74.7006 31.9568 74.7837 31.9145 75.0463 31.6571C75.7256 30.9898 75.8919 30.7416 76.2041 29.7921C76.3937 29.2154 76.4545 28.6655 76.3227 28.0476C76.2416 27.6707 76.0784 27.5719 76.0095 27.3124C76.6664 27.3124 76.7678 27.3196 77.2595 27.1198C77.4531 27.0415 77.6225 27.0086 77.811 26.919C77.9814 26.8376 78.1314 26.7182 78.3129 26.6687M75.4934 26.4968C75.5563 26.2249 75.8949 25.5926 76.0531 25.3691L77.3923 23.3373C77.5586 23.1139 78.03 22.6556 78.3149 22.5784C77.5282 24.2446 77.003 24.7286 75.9131 26.0467C75.7438 26.2506 75.7154 26.3464 75.4934 26.4968ZM74.2839 31.7611C73.6249 31.1257 74.215 29.6047 74.4208 28.9755C74.5384 28.6171 74.6114 28.4348 74.7442 28.1341C74.8902 27.8046 74.8395 27.7964 75.0899 27.3154C76.2082 28.0754 75.7317 29.408 75.2957 30.3915C75.097 30.8394 74.6976 31.48 74.2829 31.7611H74.2839Z" fill="black"/>
<path fill-rule="evenodd" clip-rule="evenodd" d="M0 27.0232H34.8382C34.8757 26.8811 34.9974 26.6916 35.0683 26.5557H0V27.0232Z" fill="#FDE300"/>
<path d="M69.3321 0H65.5312V3.2171H69.3321V0Z" fill="black"/>
<path fill-rule="evenodd" clip-rule="evenodd" d="M67.0288 27.3741C67.0795 26.7572 67.9007 26.2207 67.7202 25.7944C67.6766 25.6275 67.6675 25.6049 67.4769 25.5822C67.341 25.5658 67.2224 25.6265 67.1332 25.7233C67.0257 25.8407 66.8443 26.1764 66.752 26.3319C66.5543 26.6635 66.166 27.3504 66.166 27.784C66.166 28.0301 66.6648 28.0764 66.6841 28.0764C67.1819 28.0764 68.5728 27.0919 68.9094 27.0044C69.1446 26.9436 69.0808 27.0816 69.2744 27.0816C69.7844 27.0816 70.0236 26.9642 70.5985 26.9642C70.5529 27.0044 70.5731 26.9941 70.4961 27.0363C70.414 27.0816 70.4383 27.0672 70.3369 27.1084C69.8574 27.3051 68.4096 27.8632 68.4096 28.4266C68.4096 28.5841 68.437 28.5872 68.4674 28.719C69.0676 28.8611 69.4376 28.7242 70.0561 28.3442C70.2254 28.2402 70.3399 28.1526 70.5052 28.0404C71.7228 27.2155 70.9939 27.2732 71.5484 27.1115C71.6721 27.0754 71.7806 27.0559 71.8708 27.0301C72.2409 26.921 72.7721 26.8376 72.9577 26.5554C72.62 26.3175 72.2703 26.4874 71.7147 26.6388C71.0121 26.8293 71.2717 26.5554 70.712 26.5554L69.6181 26.6141C69.7154 26.4668 69.834 26.404 69.9963 26.2959C70.2254 26.1435 70.2538 26.1682 70.5164 26.0632C70.6755 26.0003 71.1713 25.815 71.2179 25.6543C71.2919 25.4 71.0506 25.4432 70.8276 25.4432C70.2984 25.4432 69.3474 26.1064 69.0301 26.4833C68.6864 26.8911 68.8314 26.6749 68.0801 26.9797C67.7182 27.1269 67.4252 27.2794 67.0278 27.3731M68.9865 28.3689C69.0798 28.2268 69.4711 27.9158 69.6566 27.821C69.9587 27.6676 70.2659 27.5811 70.5417 27.4328C70.4971 27.6017 70.5255 27.5121 70.4282 27.6099L69.8898 27.9992C69.6485 28.1289 69.2795 28.3442 68.9875 28.3689H68.9865Z" fill="black"/>
<path fill-rule="evenodd" clip-rule="evenodd" d="M38.2606 8.21269C38.433 7.78841 37.7943 6.82143 38.4086 6.19943C38.6712 5.93374 39.0017 6.04805 39.3576 5.93271C39.8006 5.78854 39.7114 5.43635 39.0443 5.47342C38.3072 5.51461 37.5144 5.67011 37.5215 6.49189C37.5236 6.72669 37.7263 8.43307 38.2606 8.21269Z" fill="#FDE300"/>
<path fill-rule="evenodd" clip-rule="evenodd" d="M30.467 5.49794L29.8891 6.96438C29.8333 7.08693 29.8688 7.0169 29.8273 7.07766C29.8262 7.43397 29.7938 8.17131 30.173 8.2506C30.4558 7.94578 30.175 6.98704 30.3585 6.502C30.5785 5.91913 31.0935 6.05712 31.6298 5.87073L31.6461 5.47529C31.3683 5.39805 30.7113 5.29404 30.466 5.49691" fill="#FDE300"/>
<path fill-rule="evenodd" clip-rule="evenodd" d="M53.8411 24.6249C53.8411 24.0492 53.098 24.524 53.0523 24.9431C52.9875 25.5538 53.8411 24.9194 53.8411 24.6249Z" fill="black"/>
<path fill-rule="evenodd" clip-rule="evenodd" d="M68.2376 24.6249C68.2376 24.0492 67.4945 24.524 67.4488 24.9431C67.3839 25.5538 68.2376 24.9194 68.2376 24.6249Z" fill="black"/>
<path fill-rule="evenodd" clip-rule="evenodd" d="M32.6308 5.66712C32.5385 5.31802 31.9282 5.32111 31.8947 5.62078C31.8512 6.01931 32.4777 5.88647 32.6308 5.66712Z" fill="#FDE300"/>
<path fill-rule="evenodd" clip-rule="evenodd" d="M39.91 5.83761C40.2131 5.90043 40.5426 5.87983 40.5842 5.55441C40.4037 5.42672 40.1989 5.37935 39.9161 5.45246C39.8603 5.58325 39.8593 5.69756 39.91 5.83761Z" fill="#FDE300"/>
<path fill-rule="evenodd" clip-rule="evenodd" d="M35.8008 7.3702C36.1333 7.30121 36.3168 7.26722 36.6554 7.3702L36.4628 6.96858C36.0269 6.88208 35.893 6.99845 35.8008 7.3702Z" fill="#FDE300"/>
<path fill-rule="evenodd" clip-rule="evenodd" d="M85.498 4.08101V4.23651C85.498 4.47542 85.5822 4.7545 85.6623 4.91618L85.7738 5.12111C85.8874 5.3178 86.155 5.57834 86.3568 5.69265C86.596 5.82755 86.8789 5.93671 87.1648 5.93671C87.3888 5.93671 87.4689 5.94083 87.694 5.88213C87.8734 5.83579 87.9829 5.77812 88.135 5.69471C88.1817 5.66896 88.2192 5.64013 88.2607 5.6113C88.5852 5.3868 88.8457 5.00165 88.9441 4.61239C89.0444 4.21488 89.011 3.76074 88.8315 3.39722C88.7585 3.24893 88.7575 3.25408 88.6774 3.1305C88.6227 3.04606 88.5558 2.97191 88.4858 2.90189C88.3246 2.73815 88.1948 2.65164 87.9981 2.55072C87.8369 2.46937 87.5652 2.38184 87.325 2.38184H87.1719C86.668 2.38184 86.0982 2.70519 85.8194 3.13153C85.8042 3.15522 85.79 3.17066 85.7768 3.19435L85.6653 3.39825C85.5852 3.56096 85.4991 3.83798 85.4991 4.08204M85.8529 4.19429C85.8498 4.18193 85.859 4.04909 85.861 4.02643C85.8661 3.97906 85.8742 3.92242 85.8833 3.87299C85.8924 3.82768 85.9056 3.77516 85.9198 3.73294C86.0151 3.4415 86.1854 3.19332 86.4328 3.01207C86.4825 2.97603 86.595 2.90395 86.6498 2.88026C86.7897 2.8195 86.8931 2.7814 87.0502 2.75874C87.2499 2.72888 87.475 2.74433 87.6676 2.8092C87.7518 2.83804 87.8369 2.86996 87.911 2.91424C87.9515 2.93896 87.9819 2.95544 88.0194 2.98118C88.0904 3.02958 88.1553 3.08107 88.2161 3.14183C88.277 3.20362 88.3266 3.2582 88.3783 3.33028C88.4037 3.36633 88.424 3.39825 88.4463 3.43738C88.4676 3.47343 88.4909 3.51153 88.5081 3.55066C88.5456 3.63922 88.574 3.70822 88.5993 3.8112C88.6511 4.02437 88.6571 4.2293 88.6146 4.44659C88.5375 4.83791 88.2911 5.17466 87.9606 5.3765C87.8045 5.47227 87.6332 5.53303 87.4476 5.56083C87.3645 5.57319 87.2094 5.5804 87.1181 5.5701C87.0715 5.56495 87.0168 5.55672 86.9671 5.54745C86.8728 5.52788 86.7836 5.49699 86.7035 5.463C86.5463 5.39607 86.3922 5.29103 86.2817 5.17878C86.0546 4.9481 85.9178 4.69168 85.8691 4.36318C85.8651 4.3364 85.86 4.30448 85.859 4.28182C85.8559 4.22312 85.8651 4.26637 85.8519 4.19738L85.8529 4.19429Z" fill="black"/>
<path fill-rule="evenodd" clip-rule="evenodd" d="M86.4785 5.03409C86.4785 5.05057 86.4836 5.05469 86.4998 5.05469H86.9368C86.953 5.05469 86.9581 5.04954 86.9581 5.03409V4.34928C87.1497 4.34928 87.2075 4.32662 87.321 4.44608C87.391 4.51919 87.5735 4.94244 87.6312 5.05469H88.1311C88.128 5.01865 88.0925 4.96613 88.0773 4.93214C88.056 4.8858 88.0408 4.84976 88.0195 4.80754C87.9587 4.68396 87.8441 4.43372 87.7701 4.33486C87.7215 4.26998 87.6525 4.20098 87.5613 4.17936C87.5714 4.17215 87.6454 4.14538 87.6921 4.11448C87.8158 4.03313 87.9019 3.90852 87.9019 3.73448C87.9019 3.54603 87.8756 3.39259 87.7032 3.28755C87.5887 3.21855 87.4224 3.18457 87.2429 3.18457H86.4795V5.03306L86.4785 5.03409ZM87.1943 4.0115H86.9581V3.53882C87.1831 3.53882 87.4305 3.50072 87.4305 3.77156C87.4305 3.93427 87.3423 4.0115 87.1943 4.0115Z" fill="black"/>
</g>
<defs>
<clipPath id="clip0_623_6964">
<rect width="89" height="33" fill="white"/>
</clipPath>
</defs>
</svg>
