<svg width="377" height="160" viewBox="0 0 377 160" fill="none" xmlns="http://www.w3.org/2000/svg">
<path d="M200.068 27.1251C200.056 48.8993 200.039 70.6676 200.027 92.4418C200.027 94.1865 199.134 95.0589 197.348 95.0589C190.148 95.0589 182.948 95.0764 175.748 95.0472C172.981 95.0355 172.981 94.9125 173.116 92.19C173.215 90.1525 173.069 88.1033 173.069 86.06C173.069 67.4533 173.04 48.8407 173.11 30.234C173.116 28.5361 172.636 28.2434 171.063 28.2551C161.131 28.3253 151.199 28.2082 141.274 28.3136C134.67 28.3839 129.002 30.9483 124.809 36.0244C119.667 42.2423 119.685 49.3442 122.446 56.5281C124.943 63.0387 130.125 66.3584 136.799 67.4123C143.8 68.5188 150.872 68.7648 157.949 68.5306C159.616 68.4779 160.207 68.8292 160.184 70.6324C160.09 78.2613 160.119 85.8902 160.207 93.519C160.23 95.2931 159.762 95.58 157.973 95.4863C150.913 95.1233 143.824 94.6549 136.77 94.9242C120.819 95.5331 110.005 87.4124 101.88 74.8538C92.7792 60.7963 91.3579 45.521 96.6746 29.8476C100.371 18.9576 107.045 10.0348 117.398 4.34973C122.896 1.33448 128.909 0.07569 135.091 0.0464157C155.756 -0.0472618 176.426 0.0288512 197.091 0.0347061C198.085 0.0347061 199.08 0.0581254 200.01 0.485529C200.747 1.15298 200.647 2.05463 200.647 2.90944C200.665 9.45515 200.682 16.0067 200.636 22.5524C200.624 24.0923 200.472 25.6262 200.062 27.1251H200.068Z" fill="white"/>
<path d="M200.068 27.1252C199.478 25.6732 199.992 24.1919 199.986 22.7282C199.957 15.316 199.992 7.89786 200.004 0.485626C211.404 0.427077 222.891 -0.702908 234.157 1.55121C248.142 4.34982 258.062 12.6871 264.338 25.4273C268.332 33.5362 268.59 42.2717 268.607 51.0364C268.642 65.0529 268.602 79.0694 268.648 93.0859C268.648 94.4325 268.385 94.8892 266.935 94.8716C259.734 94.7896 252.54 94.7955 245.34 94.8716C243.948 94.8833 243.527 94.5496 243.614 93.121C244 86.8095 244.41 80.4921 244.568 74.1747C244.837 63.5013 244.802 52.8397 241.041 42.5995C239.766 39.1276 237.935 36.0128 235.408 33.2845C231.431 28.987 226.371 27.4648 220.721 27.1603C213.831 26.7856 206.953 27.0081 200.062 27.1252H200.068Z" fill="white"/>
<path d="M139.835 121.946C144.461 118.428 149.328 117.994 154.493 119.464C156.698 120.09 158.622 121.255 159.997 123.065C160.798 124.118 161.219 123.802 161.95 123.117C166.559 118.785 172.092 117.86 178.017 119.236C184.159 120.664 186.662 125.33 187.785 131.039C188.242 133.363 188.353 135.717 188.376 138.071C188.429 144.4 188.394 150.723 188.394 157.052C188.394 157.866 188.534 158.668 187.23 158.633C184.814 158.563 182.387 158.557 179.971 158.633C178.778 158.668 178.895 157.983 178.895 157.216C178.895 150.951 178.918 144.687 178.866 138.422C178.854 136.882 178.713 135.319 178.444 133.802C177.748 129.804 175.321 127.69 171.671 127.778C167.682 127.871 164.962 130.19 164.342 134.054C164.085 135.647 163.956 137.245 163.962 138.867C163.991 145.009 163.95 151.15 163.997 157.292C164.003 158.317 163.769 158.685 162.681 158.645C160.511 158.557 158.335 158.557 156.165 158.645C154.984 158.691 154.592 158.399 154.61 157.122C154.68 151.42 154.674 145.711 154.598 140.003C154.569 137.778 154.51 135.541 154.007 133.352C153.112 129.458 151.094 127.784 147.287 127.813C143.631 127.836 140.876 130.067 140.145 133.627C139.858 135.026 139.753 136.443 139.759 137.877C139.782 144.265 139.753 150.658 139.806 157.046C139.817 158.194 139.618 158.715 138.314 158.65C136.086 158.545 133.845 158.568 131.611 158.65C130.588 158.685 130.395 158.311 130.395 157.38C130.424 145.038 130.43 132.69 130.383 120.348C130.383 119.195 130.833 119.06 131.792 119.083C133.84 119.142 135.898 119.224 137.934 119.06C139.542 118.931 140.045 119.481 139.776 120.98C139.735 121.209 139.8 121.46 139.835 121.952V121.946Z" fill="white"/>
<path d="M244.952 121.709C248.21 119.204 251.666 118.407 255.416 118.419C263.528 118.454 268.822 122.939 270.126 130.972C270.904 135.773 270.787 140.609 270.787 145.439C270.787 149.221 270.74 153.01 270.816 156.792C270.839 158.033 270.465 158.402 269.243 158.349C267.073 158.255 264.897 158.255 262.727 158.349C261.51 158.402 261.165 158.039 261.183 156.803C261.247 150.539 261.206 144.274 261.212 138.009C261.212 136.265 260.996 134.549 260.533 132.869C259.487 129.028 256.808 127.178 252.801 127.5C248.461 127.851 245.496 130.351 245.174 134.215C244.566 141.581 244.934 148.97 244.952 156.341C244.952 157.84 244.724 158.46 243.08 158.349C240.916 158.209 238.74 158.279 236.564 158.332C235.669 158.355 235.406 158.045 235.406 157.161C235.429 144.754 235.435 132.354 235.4 119.947C235.4 118.87 235.856 118.753 236.734 118.776C238.594 118.829 240.46 118.794 242.32 118.794C243.992 118.794 244.87 119.762 244.952 121.698V121.709Z" fill="white"/>
<path d="M287.968 136.859C287.968 139.089 287.95 141.32 287.973 143.551C288.009 146.853 289.383 148.404 292.682 148.855C293.91 149.025 295.144 149.154 296.379 149.189C297.192 149.212 297.613 149.382 297.642 150.313C297.718 152.79 297.858 155.266 298.034 157.737C298.098 158.621 297.847 158.914 296.923 158.896C294.062 158.855 291.214 158.662 288.447 157.971C282.715 156.543 279.487 152.743 278.691 146.742C277.954 141.185 278.404 135.6 278.352 130.032C278.34 128.533 278.054 127.836 276.445 128.106C275.901 128.199 275.328 128.088 274.772 128.129C274.024 128.182 273.831 127.836 273.836 127.14C273.866 124.786 273.901 122.426 273.825 120.073C273.79 118.99 274.41 119.095 275.117 119.072C278.305 118.984 278.305 118.972 278.305 115.752C278.305 113.831 278.346 111.905 278.287 109.985C278.258 109.048 278.498 108.673 279.516 108.703C281.873 108.773 284.23 108.796 286.587 108.697C287.833 108.644 288.003 109.171 287.979 110.225C287.915 112.766 288.003 115.307 287.938 117.848C287.915 118.802 288.143 119.148 289.155 119.107C291.138 119.025 293.127 119.124 295.109 119.066C296.086 119.036 296.583 119.218 296.537 120.36C296.449 122.526 296.466 124.698 296.537 126.864C296.566 127.836 296.267 128.17 295.285 128.135C293.425 128.07 291.559 128.199 289.705 128.088C288.365 128.006 287.839 128.311 287.927 129.786C288.067 132.134 287.962 134.493 287.968 136.853V136.859Z" fill="white"/>
<path d="M310.691 122.538C313.592 119.844 316.757 118.843 320.272 118.714C321.331 118.673 321.839 118.796 321.699 120.096C321.413 122.743 321.307 125.412 321.184 128.07C321.149 128.837 320.956 129.148 320.12 129.148C319.137 129.148 318.149 129.312 317.166 129.458C312.955 130.079 310.779 132.391 310.709 136.689C310.598 143.387 310.603 150.085 310.68 156.777C310.697 158.282 310.27 158.715 308.808 158.639C306.644 158.522 304.468 158.568 302.292 158.627C301.362 158.65 301.011 158.434 301.017 157.415C301.052 145.014 301.046 132.608 301.017 120.207C301.017 119.306 301.28 119.042 302.169 119.066C304.339 119.124 306.515 119.177 308.679 119.054C310.165 118.966 310.913 119.306 310.627 120.928C310.557 121.332 310.65 121.765 310.691 122.532V122.538Z" fill="white"/>
<path d="M83.8244 106.958C83.8244 106.004 83.5729 105.646 82.5727 105.682C80.4027 105.746 78.2268 105.804 76.0627 105.67C74.5712 105.576 74.2027 106.056 74.2319 107.508C74.3255 112.257 74.267 117.011 74.267 122.052C69.7223 119.113 65.049 118.07 59.931 119.042C54.7663 120.026 50.5843 122.508 47.4784 126.747C41.8516 134.423 42.2669 145.009 48.3499 152.368C53.7428 158.89 63.9903 162.14 74.3489 156.232C73.8108 158.369 74.7116 158.785 76.4429 158.656C78.4784 158.504 80.5372 158.574 82.5785 158.639C83.5729 158.668 83.8244 158.305 83.8244 157.351C83.801 140.553 83.801 123.761 83.8244 106.964V106.958ZM63.4229 150.243C57.0475 150.079 52.608 144.763 52.6197 138.99C52.6314 132.989 57.7376 127.76 63.499 127.795C69.4006 127.83 74.2787 133.03 74.2612 139.265C74.2436 145.137 69.2603 150.395 63.4229 150.243Z" fill="white"/>
<path d="M231.296 120.951C231.308 119.37 230.864 118.931 229.343 119.054C227.617 119.195 225.857 119.247 224.143 119.042C222.084 118.796 221.318 119.499 221.669 121.513C221.681 121.577 221.534 121.665 221.464 121.747C210.901 115.576 200.864 119.657 195.898 125.529C189.879 132.643 189.306 143.328 194.518 150.676C197.255 154.54 200.77 157.374 205.373 158.609C211.047 160.132 216.492 159.447 221.786 156.109C221.195 158.51 222.318 158.803 224.008 158.633C225.172 158.516 226.36 158.609 227.541 158.609C230.021 158.609 231.261 157.395 231.261 154.968C231.261 143.627 231.226 132.292 231.302 120.951H231.296ZM210.795 150.266C205.022 150.231 200.039 144.956 200.086 138.92C200.133 132.719 205.058 127.819 211.187 127.889C216.943 127.953 221.762 133.1 221.704 139.119C221.645 145.184 216.639 150.295 210.801 150.266H210.795Z" fill="white"/>
<path d="M40.2783 120.301C40.2783 119.288 39.9391 119.036 38.9974 119.072C37.2017 119.136 35.4002 119.089 33.5987 119.089C31.7075 119.089 30.6976 120.03 30.5689 121.911C21.1987 116.021 11.0389 118.925 5.33027 124.985C-0.863865 131.554 -1.77632 142.743 3.20707 150.272C6.19593 154.786 10.3078 157.895 15.6655 158.955C20.9004 159.991 25.9481 159.253 30.8028 156.027C30.1419 158.492 31.2415 158.732 32.8851 158.639C34.8621 158.527 36.8566 158.58 38.8394 158.627C39.7987 158.65 40.2841 158.481 40.2783 157.327C40.2374 144.985 40.2432 132.643 40.2783 120.301ZM19.9587 150.219C13.9693 150.143 9.02102 145.108 9.03856 139.119C9.06196 132.842 13.9284 127.813 19.9295 127.871C25.8838 127.924 30.6625 132.924 30.6566 139.101C30.6566 145.038 25.5914 150.295 19.9529 150.225L19.9587 150.219Z" fill="white"/>
<path d="M360.981 120.289C360.981 119.276 360.648 119.042 359.712 119.072C357.483 119.13 355.243 119.177 353.021 119.06C351.716 118.99 351.383 119.534 351.424 120.658C351.435 121.004 351.582 121.402 351.248 121.695C339.574 116.788 331.128 118.398 324.764 126.741C319.371 133.808 319.494 144.581 324.998 151.636C330.11 158.188 340.001 162.632 351.424 156.385C351.044 158.504 352.196 158.75 353.88 158.644C355.857 158.516 357.846 158.574 359.829 158.633C360.724 158.656 360.981 158.363 360.981 157.474C360.958 145.079 360.952 132.69 360.981 120.295V120.289ZM340.866 150.243C334.865 150.43 329.823 145.026 329.958 138.99C330.098 132.631 334.988 127.672 340.936 127.854C346.809 128.035 351.669 133.111 351.529 139.066C351.371 145.746 346.446 150.073 340.866 150.243Z" fill="white"/>
<path d="M107.121 118.714C95.8617 118.714 86.9419 127.649 86.9127 138.861C86.8776 151.379 97.7744 160.108 106.788 159.283C117.638 159.886 126.926 149.997 126.844 139.089C126.762 127.772 118.129 118.714 107.127 118.714H107.121ZM107.045 150.295C101.214 150.383 96.0606 145.044 96.1015 138.966C96.1425 132.895 101.161 127.748 106.975 127.813C112.836 127.883 117.807 133.065 117.778 139.078C117.749 144.921 112.684 150.213 107.045 150.295Z" fill="white"/>
<path d="M369.918 100.881C365.953 100.834 362.566 104.341 362.613 108.451C362.66 112.567 365.894 115.869 369.86 115.834C373.902 115.805 376.996 112.584 377.002 108.41C377.002 104.259 373.872 100.927 369.918 100.881ZM369.918 114.253C366.778 114.294 364.251 111.694 364.245 108.416C364.239 105.09 366.672 102.567 369.872 102.573C373.018 102.578 375.545 105.219 375.51 108.463C375.475 111.572 372.919 114.212 369.918 114.253Z" fill="white"/>
<path d="M372.884 110.787C372.744 110.324 372.521 109.844 372.217 109.475C371.667 108.814 371.586 108.375 372.206 107.59C373.112 106.437 372.51 104.967 371.112 104.493C369.731 104.025 368.152 103.902 366.941 104.446C366.111 104.821 366.737 106.378 366.614 107.397C366.585 107.643 366.614 107.895 366.614 108.141C366.614 109.194 366.649 110.248 366.602 111.296C366.567 112.093 367.012 112.221 367.649 112.21C368.234 112.198 368.69 112.18 368.784 111.355C368.86 110.676 368.129 109.528 369.322 109.37C370.386 109.23 370.451 110.488 370.907 111.179C371.006 111.331 371.036 111.531 371.123 111.689C371.568 112.461 372.375 112.35 372.942 112.139C373.849 111.8 373.019 111.232 372.884 110.793V110.787ZM369.538 107.69C368.854 107.754 368.679 107.409 368.731 106.817C368.772 106.355 368.626 105.758 369.421 105.834C370.018 105.892 370.498 106.103 370.503 106.917C370.468 107.42 370.1 107.637 369.538 107.69Z" fill="white"/>
</svg>
