<svg width="848" height="463" viewBox="0 0 848 463" fill="none" xmlns="http://www.w3.org/2000/svg">
<path d="M515.757 131.256C515.701 236.62 515.616 341.955 515.559 447.319C515.559 455.761 511.234 459.983 502.584 459.983C467.71 459.983 432.836 460.068 397.962 459.926C384.562 459.87 384.562 459.275 385.213 446.101C385.695 436.241 384.987 426.325 384.987 416.438C384.987 326.401 384.845 236.337 385.185 146.3C385.213 138.084 382.89 136.668 375.27 136.724C327.166 137.064 279.062 136.498 230.986 137.007C199.001 137.347 171.55 149.757 151.237 174.32C126.335 204.407 126.42 238.773 139.792 273.535C151.889 305.04 176.989 321.103 209.313 326.203C243.224 331.558 277.475 332.748 311.754 331.614C319.828 331.359 322.69 333.059 322.576 341.785C322.123 378.701 322.264 415.616 322.689 452.532C322.803 461.116 320.536 462.504 311.868 462.051C277.673 460.294 243.338 458.028 209.172 459.331C131.916 462.278 79.5344 422.982 40.1843 362.212C-3.89696 294.189 -10.7811 220.273 14.9707 144.43C32.8752 91.7343 65.1995 48.5576 115.343 21.048C141.973 6.45746 171.096 0.366258 201.041 0.224602C301.13 -0.228696 401.248 0.139609 501.338 0.16794C506.154 0.16794 510.97 0.281265 515.474 2.34944C519.044 5.57919 518.562 9.94219 518.562 14.0785C518.647 45.7528 518.732 77.4554 518.505 109.13C518.449 116.581 517.712 124.003 515.729 131.256H515.757Z" fill="#1257A2"/>
<path d="M515.757 131.256C512.896 124.23 515.389 117.062 515.36 109.979C515.219 74.1122 515.389 38.2166 515.445 2.34933C570.66 2.06602 626.3 -3.4019 680.863 7.5056C748.6 21.0479 796.647 61.3915 827.045 123.04C846.395 162.279 847.641 204.549 847.726 246.961C847.896 314.785 847.698 382.61 847.924 450.435C847.924 456.951 846.649 459.161 839.624 459.076C804.75 458.679 769.904 458.708 735.03 459.076C728.287 459.133 726.248 457.518 726.673 450.605C728.542 420.064 730.525 389.495 731.29 358.925C732.594 307.278 732.424 255.687 714.208 206.135C708.032 189.335 699.164 174.263 686.926 161.061C667.662 140.265 643.156 132.899 615.79 131.426C582.417 129.613 549.101 130.69 515.729 131.256H515.757Z" fill="#221E1F"/>
</svg>
